<svg width="40" height="40" viewBox="0 0 40 40" fill="none" xmlns="http://www.w3.org/2000/svg">
<path d="M6.39961 19.9998C6.39961 12.4798 12.4796 6.39978 19.9996 6.39978C27.5196 6.39978 33.5996 12.4798 33.5996 19.9998C33.5996 27.5198 27.5196 33.5998 19.9996 33.5998C12.4796 33.5998 6.39961 27.5198 6.39961 19.9998ZM31.9996 19.9998C31.9996 13.3598 26.6396 7.99978 19.9996 7.99978C13.3596 7.99978 7.99961 13.3598 7.99961 19.9998C7.99961 26.6398 13.3596 31.9998 19.9996 31.9998C26.6396 31.9998 31.9996 26.6398 31.9996 19.9998Z" fill="#403434"/>
<path d="M18.6397 26.6398L25.2797 19.9998L18.6397 13.3598L19.7597 12.2398L27.5197 19.9998L19.7597 27.7598L18.6397 26.6398Z" fill="#403434"/>
<path d="M26.3997 19.1998V20.7998H12.7997V19.1998H26.3997Z" fill="#403434"/>
</svg>
